# xmcd
#
# Track frame offsets:
#	150
#	17262
#	35085
#	51484
#	72372
#	89417
#	106584
#	124584
#	141533
#
# Disc length: 2144 seconds
#
# Revision: 1
# Processed by: cddbd v1.5.2PL0 Copyright (c) Steve Scherf et al.
# Submitted via: audiograbber 1.83.01
#
DISCID=7a085e09
DTITLE=ASK1302A - All Star Karaoke ASK1302A Feb 2013 A Pro Version
DYEAR=2013
DGENRE=Karaoke
TTITLE0=Swedish House Mafia - Don't You Worry Child
TTITLE1=Kristen Kelly - He Loves To Make Me Cry
TTITLE2=Kip Moore - Hey Pretty Girl
TTITLE3=Tim McGraw ft Taylor Swift - Highway Don't Care
TTITLE4=Chris Young - Neon
TTITLE5=Kenny Chesney - Pirate Flag
TTITLE6=Script - Six Degrees Of Separation
TTITLE7=Calvin Harris ft Florence Welch - Sweet Nothing
TTITLE8=LeAnn Rimes - What Have I Done
EXTD=
EXTT0=
EXTT1=
EXTT2=
EXTT3=
EXTT4=
EXTT5=
EXTT6=
EXTT7=
EXTT8=
PLAYORDER=
